<?xml version="1.0" encoding="UTF-8"?>
<svg id="Layer_2" data-name="Layer 2" xmlns="http://www.w3.org/2000/svg" viewBox="0 0 190.98 47.35">
  <defs>
    <style>
      .cls-1 {
        fill: #fff6e5;
      }
    </style>
  </defs>
  <g id="Layer_1-2" data-name="Layer 1">
    <g>
      <path class="cls-1" d="M34.86,29.18c-.62,0-1.08-.57-.96-1.18.66-3.49,2.4-6.44,5.22-8.85,3.13-2.69,6.84-4.12,11.13-4.31,5.13-.24,8.96.71,11.48,2.83,2.52,2.12,3.47,4.66,2.86,7.63-.42,1.7-1.67,3.36-3.74,4.98-2.07,1.62-4.38,3.03-6.92,4.2-2.24,1.04-5.25,2.24-9.02,3.6-.72.26-.9,1.23-.28,1.69,1.82,1.37,3.89,2.05,6.19,2.05,1.55,0,2.96-.28,4.2-.85,1.25-.57,2.27-1.21,3.07-1.94.64-.59,1.33-1.38,2.07-2.38.31-.42.89-.54,1.33-.25l2.59,1.68c.47.31.59.95.25,1.4-1.18,1.57-2.3,2.81-3.34,3.72-1.23,1.06-2.76,1.99-4.59,2.79s-3.89,1.2-6.15,1.2c-2.83,0-5.46-.66-7.91-1.98-2.45-1.32-4.45-3.08-6.01-5.3-.47-.72-.88-1.43-1.22-2.13-.27-.54.02-1.2.6-1.38,4.81-1.51,8.57-2.82,11.29-3.94,2.92-1.2,5.48-2.58,7.67-4.13,2.19-1.55,3.29-3.15,3.29-4.8,0-1.18-.72-2.06-2.15-2.65-1.44-.59-3.1-.84-4.98-.74-2.59.1-4.88.99-6.85,2.68-1.77,1.52-2.92,3.38-3.44,5.58-.11.45-.49.78-.95.78h-4.7Z"/>
      <path class="cls-1" d="M99.74,34.9c.64,0,1.08.63.89,1.24-.98,3.11-2.66,5.69-5.06,7.74-2.71,2.31-5.95,3.46-9.71,3.46-3.02,0-5.81-.73-8.37-2.19-2.57-1.46-4.59-3.43-6.08-5.9-1.48-2.47-2.23-5.17-2.23-8.09s.74-5.69,2.23-8.16c1.48-2.47,3.51-4.43,6.08-5.86,2.57-1.44,5.36-2.15,8.37-2.15,3.72,0,6.93,1.13,9.64,3.39,2.38,1.99,4.08,4.49,5.1,7.51.21.61-.24,1.25-.89,1.25h-3.63c-.38,0-.71-.23-.86-.58-.77-1.76-1.95-3.22-3.55-4.37-1.77-1.27-3.71-1.91-5.83-1.91-2.87,0-5.32,1.06-7.35,3.18-2.03,2.12-3.04,4.69-3.04,7.7s1.01,5.51,3.04,7.63c2.02,2.12,4.47,3.18,7.35,3.18,2.17,0,4.13-.66,5.9-1.98,1.6-1.19,2.78-2.69,3.55-4.5.15-.35.48-.59.86-.59h3.58Z"/>
      <path class="cls-1" d="M118.92,22.05c-.65-.23-1.34.25-1.34.93v14.46c0,1.63.41,2.8,1.24,3.52.07.06.14.11.22.15.88.48,2.09.71,3.63.71.89,0,1.53-.05,1.91-.14l.81-.15c.61-.11,1.17.36,1.17.98v3.47c0,.49-.36.91-.84.98l-.53.08s-.05,0-.08,0c-.97.09-1.78.14-2.43.14-3.25,0-5.89-.75-7.91-2.26-2.26-1.7-3.39-4.19-3.39-7.49v-16.14c0-.5-.38-.94-.88-.99-1.03-.11-2.07-.14-3.11-.1-1.08.04-2.36.17-3.85.39-.6.09-1.13-.38-1.13-.98v-3.51c0-.39.23-.73.58-.89,2.22-1.04,3.99-2.33,5.32-3.87,1.44-1.67,2.44-3.33,3-4.98.5-1.45.83-3.26,1-5.43C112.33.41,112.76,0,113.28,0h3.71c.56,0,1.01.46.99,1.01-.11,3.29-.78,6.11-2,8.49-.89,1.73-1.94,3.19-3.15,4.38-.62.6-.25,1.65.61,1.71,2.3.15,4.16.4,5.58.77,1.73.45,3.17,1.16,4.3,2.14.22.19.33.46.33.75v3.6c0,.8-.9,1.27-1.55.81-.39-.27-.78-.52-1.17-.73-.59-.32-1.26-.61-2.02-.88Z"/>
      <path class="cls-1" d="M141.73,41.85c1.68,0,3.31-.6,4.66-1.61.92-.69,1.96-1.6,3.12-2.72,1.04-.99,1.9-1.75,2.58-2.3.68-.54,1.38-.88,2.08-1.02,1.98-.47,3.44-.18,4.38.88.94,1.06,1.49,2.44,1.66,4.13.15,1.56.05,3.77-.29,6.64-.05.44-.43.78-.87.78h-4.14c-.56,0-.97-.52-.85-1.06.35-1.61.5-2.79.46-3.53-.05-.89-.4-1.41-1.06-1.55-.38-.05-.77.07-1.17.35-.4.28-.98.78-1.73,1.48-1.23,1.23-2.45,2.25-3.67,3.07-1.23.82-2.73,1.42-4.52,1.8-1.41.28-3.04.19-4.88-.28s-3.43-1.42-4.77-2.86c-1.34-1.44-1.99-3.4-1.94-5.9.05-2.17.65-3.91,1.8-5.23,1.15-1.32,2.6-2.3,4.35-2.93,1.74-.64,3.79-1.14,6.15-1.52.09,0,.23-.02.42-.07,2.78-.42,4.9-.91,6.36-1.45,1.46-.54,2.4-1.47,2.83-2.79.42-1.13.04-2.25-1.17-3.36-1.2-1.11-3.31-1.52-6.32-1.24-2.17.14-4.02.64-5.55,1.48-1.31.73-2.46,1.82-3.44,3.27-.28.41-.85.49-1.25.2l-2.58-1.86c-.38-.27-.49-.8-.23-1.18,1.2-1.76,2.84-3.25,4.93-4.46,2.35-1.37,5.06-2.12,8.12-2.26,3.25-.19,6.31.31,9.18,1.48,2.87,1.18,4.43,3.34,4.66,6.5.19,2.17-.25,3.89-1.31,5.16-1.06,1.27-2.4,2.18-4.03,2.72-1.62.54-3.78,1.07-6.46,1.59-3.06.57-5.37,1.19-6.92,1.87-1.55.68-2.45,1.8-2.68,3.36-.14,1.08.15,2.12.88,3.11.63.86,1.7,1.29,3.2,1.3Z"/>
      <path class="cls-1" d="M184.63,26.63v-.64c0-3.16-.61-4.8-1.84-4.95-1.46-.14-2.9.98-4.31,3.36-1.41,2.38-2.66,5.21-3.74,8.48-1.04,3.15-2.28,7.57-3.71,13.26-.1.4-.46.69-.88.69h-4.68c-.5,0-.9-.4-.9-.9v-29.35c0-.5.4-.9.9-.9h4.48c.5,0,.9.4.9.9v9.64c0,1.01,1.4,1.25,1.75.3.55-1.48,1.08-2.74,1.6-3.78,1.06-2.12,2.41-3.94,4.06-5.48,1.65-1.53,3.56-2.23,5.72-2.08,2.35.14,4.11,1.28,5.26,3.43,1.15,2.14,1.73,4.51,1.73,7.1v.92h-6.36Z"/>
      <path class="cls-1" d="M5.51,46.96H.99c-.55,0-.99-.44-.99-.99v-21.12c0-.55.44-.99.99-.99h4.3c.55,0,.99.44.99.99v1.61c0,1.1,1.52,1.37,1.92.34.61-1.6,1.22-2.96,1.83-4.08,1.22-2.26,2.83-4.17,4.8-5.72,1.98-1.55,4.26-2.14,6.85-1.77,4.95.75,7.42,5.72,7.42,14.91v15.82c0,.55-.44.99-.99.99h-4.38c-.55,0-.99-.44-.99-.99v-15.33c-.14-3.39-.45-5.79-.92-7.21-.47-1.41-1.23-2.17-2.26-2.26-1.79-.19-3.49.91-5.09,3.29-1.6,2.38-2.99,5.21-4.17,8.48-1.13,3.14-2.41,7.56-3.84,13.27-.11.44-.51.76-.96.76Z"/>
    </g>
  </g>
</svg>