<?xml version="1.0" encoding="UTF-8"?>
<svg id="Layer_2" data-name="Layer 2" xmlns="http://www.w3.org/2000/svg" viewBox="0 0 29.11 31.83">
  <g id="Layer_1-2" data-name="Layer 1">
    <g>
      <path d="M13.59,19.92c-.01-.27-.47-.04-.61.01-1.38.59-3.34,1.99-4.47,2.97-2.87,2.49-4.79,5.59-6.04,8.93h4.58c.91-4.46,2.91-8.68,6.54-11.92Z"/>
      <path d="M6.61,14.83c5.74-5.26,13.65-7.86,21.54-8.06-1.14-3.95-3.29-6.17-6.46-6.65-2.59-.38-4.87.21-6.85,1.77-1.98,1.55-3.58,3.46-4.8,5.72-.6,1.11-1.21,2.47-1.83,4.08-.39,1.03-1.92.76-1.92-.34v-1.61c0-.55-.44-.99-.99-.99H.99c-.55,0-.99.44-.99.99v15.13c1.25-3.71,3.43-7.11,6.61-10.02Z"/>
      <path d="M21.28,29.91c-.41.67-.86,1.31-1.34,1.92,2.28,0,3.88,0,3.81,0h4.38c.55,0,.99-.44.99-.99v-15.82c0-1.36-.06-2.61-.17-3.79-4.42,5.38-4.08,12.83-7.66,18.68Z"/>
    </g>
  </g>
</svg>